<?xml version="1.0" encoding="UTF-8"?>
<svg version="1.1" xmlns="http://www.w3.org/2000/svg" width="128" height="128">
<path d="M0 0 C12.13659201 4.81700231 24.40652776 7.95410229 37.10546875 10.8815918 C38.26973389 11.15005417 39.43399902 11.41851654 40.63354492 11.69511414 C41.5176001 11.89885147 42.40165527 12.10258881 43.3125 12.3125 C43.44044093 20.01291942 43.52732503 27.71305965 43.5871582 35.41430664 C43.61213048 38.0280176 43.6461203 40.64165997 43.68969727 43.25512695 C44.05618048 65.81755797 42.57433771 81.34202697 26.75 98.4375 C16.65053109 108.15556903 1.49927063 116.04495483 -12.6875 116.9375 C-29.21372919 115.89777035 -45.16925926 106.24603215 -56.125 94.31640625 C-66.02713103 82.70857277 -69.34703086 69.87393059 -69.078125 54.79296875 C-69.07246521 53.56838455 -69.06680542 52.34380035 -69.06097412 51.08210754 C-69.03881755 47.22098503 -68.98865927 43.36083581 -68.9375 39.5 C-68.91740828 36.86134165 -68.89916224 34.22266856 -68.8828125 31.58398438 C-68.83902088 25.15983151 -68.77231956 18.73623532 -68.6875 12.3125 C-67.36141724 12.006894 -67.36141724 12.006894 -66.00854492 11.69511414 C-64.26214722 11.29242058 -64.26214722 11.29242058 -62.48046875 10.8815918 C-61.32828857 10.61597946 -60.1761084 10.35036713 -58.98901367 10.07670593 C-46.51102509 7.18840867 -34.58070122 3.79709811 -22.71679688 -1.09643555 C-13.76754718 -4.71102292 -8.74071028 -3.60530216 0 0 Z M-40.6875 34.3125 C-47.82957432 43.52861933 -48.53933 53.05064361 -47.6875 64.3125 C-45.87592444 73.38253603 -39.71701904 80.41485094 -32.53515625 85.98046875 C-23.23446079 92.06787211 -12.53902967 92.88070097 -1.7734375 90.73046875 C7.25813868 87.59092084 14.55878721 80.45939033 19.375 72.33203125 C23.46761549 63.51585537 24.09489262 52.20020479 20.875 42.9375 C16.32918758 33.41217575 8.27939489 26.09925795 -1.44140625 22.2109375 C-16.94723208 17.91931302 -30.00740921 22.79773071 -40.6875 34.3125 Z " fill="#000000" transform="translate(76.6875,7.6875)"/>
<path d="M0 0 C5.28 0 10.56 0 16 0 C16 3.96 16 7.92 16 12 C19.96 12 23.92 12 28 12 C29.36538938 14.73077876 29.13231826 16.95560367 29.125 20 C29.12886719 21.60875 29.12886719 21.60875 29.1328125 23.25 C29 26 29 26 28 28 C24.04 28 20.08 28 16 28 C16 31.96 16 35.92 16 40 C10.72 40 5.44 40 0 40 C-1.82089479 36.35821043 -1.05121113 31.99446852 -1 28 C-4.63 28 -8.26 28 -12 28 C-13.36538938 25.26922124 -13.13231826 23.04439633 -13.125 20 C-13.12757812 18.9275 -13.13015625 17.855 -13.1328125 16.75 C-13 14 -13 14 -12 12 C-8.37 12 -4.74 12 -1 12 C-1.020625 10.39125 -1.04125 8.7825 -1.0625 7.125 C-1.125 2.25 -1.125 2.25 0 0 Z " fill="#000000" transform="translate(56,44)"/>
</svg>
